<svg xmlns="http://www.w3.org/2000/svg" viewBox="0 0 174.01 20.47"><defs><style>.cls-1{fill:#f4f3ea}</style></defs><title>Logotipo-Alabaster</title><g id="Capa_2" data-name="Capa 2"><path class="cls-1" d="M17.62 14.74a1 1 0 0 0-1 .28 7.09 7.09 0 0 1-2.38 1.41 9.24 9.24 0 0 1-3.17.52 6.68 6.68 0 0 1-2.63-.53A7 7 0 0 1 6.29 15a6.7 6.7 0 0 1-1.49-2.17 6.42 6.42 0 0 1-.55-2.63 6.61 6.61 0 0 1 2-4.78A7.12 7.12 0 0 1 8.45 4a6.75 6.75 0 0 1 2.66-.53 8.68 8.68 0 0 1 2.62.38 6.2 6.2 0 0 1 1.93.94 1 1 0 0 0 .86.19 1 1 0 0 0 .66-.62l.75-1.9a1 1 0 0 0 0-.77.94.94 0 0 0-.61-.5h-.05L16.15.88 15 .52a13.26 13.26 0 0 0-1.91-.37 14.86 14.86 0 0 0-2-.15 12.11 12.11 0 0 0-4.3.75 10.59 10.59 0 0 0-3.51 2.1A9.74 9.74 0 0 0 0 10.23a9.72 9.72 0 0 0 .87 4.12 9.87 9.87 0 0 0 2.37 3.23 10.76 10.76 0 0 0 3.51 2.1 12.11 12.11 0 0 0 4.3.75 14.06 14.06 0 0 0 2.74-.25 13.26 13.26 0 0 0 2.35-.72 2.67 2.67 0 0 0 .66-.39 1.71 1.71 0 0 0 .49-.73l.92-2.34a1 1 0 0 0 0-.8.87.87 0 0 0-.59-.46zm21.13 3.81C38.31 17.82 31.18 1 31.18 1a2.62 2.62 0 0 0-.25-.4 1.24 1.24 0 0 0-.25-.26 1.75 1.75 0 0 0-.27-.16A1.38 1.38 0 0 0 30 0h-.5a1.38 1.38 0 0 0-.39.14 1.75 1.75 0 0 0-.27.16 1.24 1.24 0 0 0-.25.26 2.62 2.62 0 0 0-.25.44s-7.13 16.78-7.57 17.51a1 1 0 0 0-.09 1 .88.88 0 0 0 .83.5h2.21a1 1 0 0 0 1-.83c0-.16 4-9.66 4.87-11.72a.17.17 0 0 1 .32 0c.87 2.06 4.83 11.56 4.87 11.72a1 1 0 0 0 1 .83H38a.88.88 0 0 0 .83-.5 1 1 0 0 0-.08-.96zM60.48 4.34V3.25c0-.38 0-.73.07-1s0-.49.06-.64a.88.88 0 0 0-.37-.92 1.11 1.11 0 0 0-.65-.22h-2.28a1.06 1.06 0 0 0-.65.22.86.86 0 0 0-.35 1v.56c0 .33 0 .69.06 1.07s0 .74 0 1.09v7.64a.17.17 0 0 1-.3.12L47.24 3c-.46-.46-.93-.94-1.38-1.42S44.76.38 44.73.36a.63.63 0 0 0-.12-.1h-.06l-.18-.13a1.37 1.37 0 0 0-.58-.13 1.46 1.46 0 0 0-1.07.47 1.36 1.36 0 0 0-.35.9l.08.77c.02.19 0 .56 0 .88v14.14c0 .37 0 .73-.07 1.05s0 .49-.06.64a.87.87 0 0 0 .37.92 1.06 1.06 0 0 0 .65.23h2.33a1.12 1.12 0 0 0 .64-.22.9.9 0 0 0 .36-1 3.34 3.34 0 0 1-.06-.55c0-.34 0-.69-.06-1.08s0-.74 0-1.08v-7.6a.18.18 0 0 1 .3-.13l9 9.12 1.38 1.43c.45.47 1.1 1.17 1.12 1.2l.12.09h.07a1 1 0 0 0 .17.1 1.45 1.45 0 0 0 .59.12 1.43 1.43 0 0 0 1.02-.4 1.36 1.36 0 0 0 .35-.89l-.08-.77c-.02-.19-.05-.57-.06-.89V5.11c-.07-.18-.06-.43-.05-.77zm22.87 0c0-.35 0-.71.05-1.09s0-.73.07-1 0-.49.06-.64a.9.9 0 0 0-.37-.92 1.11 1.11 0 0 0-.65-.22h-2.33a1 1 0 0 0-.64.22.88.88 0 0 0-.36 1 3.54 3.54 0 0 1 .06.56c0 .33 0 .69.05 1.07s0 .74 0 1.09v7.64a.18.18 0 0 1-.31.12L70.11 3c-.46-.46-.92-.94-1.38-1.42S67.64.38 67.61.36l-.12-.1h-.06l-.18-.13a1.42 1.42 0 0 0-1.65.34 1.31 1.31 0 0 0-.35.9l.08.77c.02.19 0 .56 0 .88v14.14c0 .37 0 .73-.07 1.05s0 .49-.06.64a.88.88 0 0 0 .36.92 1.09 1.09 0 0 0 .66.23h2.32a1.13 1.13 0 0 0 .65-.22.89.89 0 0 0 .35-1 4 4 0 0 1-.05-.55c0-.34 0-.69-.06-1.08s0-.74 0-1.08v-7.6a.18.18 0 0 1 .31-.13l9 9.12 1.38 1.43 1.12 1.2.12.09h.06l.18.1a1.45 1.45 0 0 0 .59.12 1.42 1.42 0 0 0 1-.4 1.31 1.31 0 0 0 .35-.89l-.08-.77c-.02-.19 0-.57 0-.89V5.11c-.12-.18-.11-.43-.11-.77zm21.79 14.21C104.7 17.82 97.57 1 97.57 1a2.62 2.62 0 0 0-.25-.4 1.24 1.24 0 0 0-.25-.26 1.75 1.75 0 0 0-.27-.16 1.38 1.38 0 0 0-.39-.18h-.51a1.38 1.38 0 0 0-.39.14 1.75 1.75 0 0 0-.27.16 1.24 1.24 0 0 0-.24.3 2.62 2.62 0 0 0-.25.44s-7.15 16.78-7.59 17.51a1 1 0 0 0-.09 1 .88.88 0 0 0 .83.5h2.21a1 1 0 0 0 1-.83c0-.16 4-9.66 4.87-11.72a.17.17 0 0 1 .32 0c.87 2.06 4.83 11.56 4.87 11.72a1 1 0 0 0 1 .83h2.21a.88.88 0 0 0 .83-.5 1 1 0 0 0-.07-1zm68.69 0c-.45-.73-7.58-17.55-7.58-17.55a2.71 2.71 0 0 0-.25-.4 1.07 1.07 0 0 0-.26-.26 1.64 1.64 0 0 0-.26-.16 1.34 1.34 0 0 0-.4-.14h-.48a1.38 1.38 0 0 0-.39.14 1.64 1.64 0 0 0-.26.16 1.07 1.07 0 0 0-.26.26 2.71 2.71 0 0 0-.24.44s-7.14 16.78-7.58 17.51a1 1 0 0 0-.09 1 .9.9 0 0 0 .84.5h2.21a1 1 0 0 0 1-.83c0-.16 4-9.66 4.87-11.72a.18.18 0 0 1 .33 0c.86 2.06 4.83 11.56 4.87 11.72a1 1 0 0 0 1 .83h2.21a.88.88 0 0 0 .83-.5 1 1 0 0 0-.11-1zM137.5 1.47c.44.73 7.57 17.51 7.57 17.51a2.55 2.55 0 0 0 .24.45 1 1 0 0 0 .26.25 1 1 0 0 0 .26.16 1.76 1.76 0 0 0 .39.15 2 2 0 0 0 .24 0 1.9 1.9 0 0 0 .25 0 1.86 1.86 0 0 0 .4-.15 1.4 1.4 0 0 0 .26-.16 1.23 1.23 0 0 0 .26-.25 3.45 3.45 0 0 0 .24-.45S155 2.2 155.48 1.47a.94.94 0 0 0 .09-1 .88.88 0 0 0-.83-.49h-2.21a1 1 0 0 0-1 .82c0 .17-4 9.66-4.86 11.72a.18.18 0 0 1-.33 0C145.47 10.49 141.5 1 141.46.83a1 1 0 0 0-1-.82h-2.21a.88.88 0 0 0-.84.49 1 1 0 0 0 .09.97zM123.51.82a.93.93 0 0 0-.84-.43H107a1 1 0 0 0-1 .79c-.08.23-.45 1.16-.53 1.38a1 1 0 0 0 .28 1.17 1.17 1.17 0 0 0 .71.24l1.44-.08h4.3a.18.18 0 0 1 .18.17V17.2c0 .37 0 .74-.06 1.05s0 .5-.06.65a1 1 0 0 0 .14.73.91.91 0 0 0 .79.41h2.57a.94.94 0 0 0 .8-.41.93.93 0 0 0 .13-.73v-.65c0-.29 0-.66-.07-1.05s0-.74 0-1.08V4.04a.17.17 0 0 1 .17-.17h4.11l1.23.07a1.08 1.08 0 0 0 1-.66c.09-.25.5-1.35.61-1.57a1 1 0 0 0-.23-.89zm9.14 17.44c0-.34 0-.69-.05-1.08s0-.74 0-1.08V3.22c0-.38 0-.74.05-1.08a3.34 3.34 0 0 1 .06-.55.92.92 0 0 0-.34-1 1.08 1.08 0 0 0-.63-.21h-2.51a1 1 0 0 0-.63.22.9.9 0 0 0-.35.92c0 .15 0 .36.06.64s.05.66.06 1.05 0 .74 0 1.08v12.89c0 .37 0 .73-.06 1.05s0 .49-.06.64a.9.9 0 0 0 .35.92 1 1 0 0 0 .63.23h2.51a1.09 1.09 0 0 0 .63-.22.92.92 0 0 0 .34-1 3.34 3.34 0 0 1-.06-.54z" id="Capa_1-2" data-name="Capa 1"/></g></svg>